<svg xmlns="http://www.w3.org/2000/svg" viewBox="0 0 64 64" id="Sale"><g transform="translate(0 -988.362)" fill="#000000" class="color000000 svgShape"><path fill="#dce6e0" d="M53.5 1038.362a21.377 21.377 0 1 0-42.754 0" class="colore6e6dc svgShape"></path><path fill="#00ff65" d="m53 1020.742-9.96 2.602v-7.774l9.96-2.601-2.961 5.484z" class="colorff9300 svgShape"></path><path fill="#00ff65" d="m42.733 1022.701 6.103 2.601v-7.774l-6.103-2.6z" class="colorff7c00 svgShape"></path><path fill="none" stroke="#121a15" stroke-linecap="round" stroke-linejoin="round" stroke-width="1.043" d="M46.453-1004.072h6.634v7.774h-6.634z" transform="matrix(.91992 .3921 0 -1 0 0)" class="colorStroke12141a svgStroke"></path><path fill="none" stroke="#121a15" stroke-linecap="round" stroke-linejoin="round" d="m53 1020.742-9.96 2.602v-7.774l9.96-2.601-2.961 5.484z" class="colorStroke12141a svgStroke"></path><path fill="#00ff65" d="m14 1030.089 9.959-2.602v7.774l-9.96 2.601 2.962-5.484z" class="colorff9300 svgShape"></path><path fill="#00ff65" d="m18.58 1033.598 6.102 2.601v-7.774l-6.102-2.6z" class="colorff7c00 svgShape"></path><path fill="none" stroke="#121a15" stroke-linecap="round" stroke-linejoin="round" d="m14 1030.089 9.959-2.602v7.774l-9.96 2.601 2.962-5.484z" class="colorStroke12141a svgStroke"></path><path fill="none" stroke="#121a15" stroke-linecap="round" stroke-linejoin="round" stroke-width="1.043" d="M20.197-1025.513h6.634v7.774h-6.634z" transform="matrix(.91992 .3921 0 -1 0 0)" class="colorStroke12141a svgStroke"></path><path fill="none" stroke="#1a1a1a" stroke-linecap="round" stroke-linejoin="round" d="M27.933 1017.715v-6c0-2.688 2.234-4.853 5.01-4.853 2.775 0 5.01 2.165 5.01 4.853v6" class="colorStroke1a1a1a svgStroke"></path><rect width="20.057" height="23.897" x="25.142" y="1013.924" fill="#2ce475" rx="1.114" ry="1.086" class="colore42c34 svgShape"></rect><rect width="21.172" height="23.897" x="24.028" y="1013.924" fill="#2ce475" rx="1.176" ry="1.086" class="colore42c34 svgShape"></rect><ellipse cx="2463.657" cy="1856.726" fill="#e6e6e6" rx="1.114" ry="1.086" transform="translate(-2433.5 -839)" class="colore6e6e6 svgShape"></ellipse><ellipse cx="2473.686" cy="1856.726" fill="#e6e6e6" rx="1.114" ry="1.086" transform="translate(-2433.5 -839)" class="colore6e6e6 svgShape"></ellipse><path fill="#2cbb65" d="M22.914 1013.924c-.617 0-1.114.484-1.114 1.086v21.725c0 .601.497 1.086 1.114 1.086h3.343a1.098 1.098 0 0 1-1.114-1.086v-21.725c0-.602.497-1.086 1.114-1.086z" class="colorbb2c34 svgShape"></path><path fill="#2c9a58" d="M22.914 1013.924c-.617 0-1.114.484-1.114 1.086v.011a1.671 1.34 0 0 0 .836 1.152 1.671 1.34 0 0 0 1.671 0 1.671 1.34 0 0 0 .836-1.152 1.671 1.34 0 0 0 0-.011c0-.602.497-1.086 1.114-1.086h-3.343z" class="color9a2c34 svgShape"></path><path fill="#14532d" fill-opacity=".423" d="m45.2 1019.659-23.395 6.097v7.642l23.395-6.137v-7.602z" class="color333333 svgShape"></path><path fill="none" stroke="#121a15" stroke-linecap="round" stroke-linejoin="round" d="M45.2 1033.49v3.245c0 .601-.525 1.086-1.176 1.086H26.319c-.651 0-1.176-.485-1.176-1.086v-21.725c0-.602.525-1.086 1.176-1.086h17.705c.651 0 1.176.484 1.176 1.086V1031.34" class="colorStroke12141a svgStroke"></path><path fill="none" stroke="#121a15" stroke-linecap="round" stroke-linejoin="round" d="M26.257 1013.924h-3.343c-.617 0-1.114.484-1.114 1.086v2.22m0 2.173v1.08m0 2.166V1036.734c0 .602.497 1.087 1.114 1.087h3.343" class="colorStroke12141a svgStroke"></path><path fill="#00ff65" d="m18.58 1025.366 30.256-7.903v7.774l-30.256 7.903z" class="colorffb400 svgShape"></path><path fill="none" stroke="#121a15" stroke-linecap="round" stroke-linejoin="round" d="M7.5 1037.862h3.512m1.996 0h34.006m1.984 0h1.016m1.969 0H55.5m-20.876-16.673 1.106-.289m2.237-.584 1.635-.427 9.234-2.425v7.774l-30.256 7.903v-7.774l7.564-1.976 5.133-1.328 1.114-.29" class="colorStroke12141a svgStroke"></path><path fill="none" stroke="#1a1a1a" stroke-linecap="round" stroke-linejoin="round" d="M30.161 1017.718v-6c0-2.688 2.235-4.852 5.01-4.852 2.776 0 5.01 2.164 5.01 4.853v5.999" class="colorStroke1a1a1a svgStroke"></path><path style="line-height:125%;-inkscape-font-specification:Bebas Neue Bold" fill="#ffffff" d="M30.745 1025.255c0 1.082 1.163.916 1.163 1.695 0 .27-.119.4-.308.45-.19.052-.309-.013-.309-.284v-.271l-.563.15v.233c0 .607.303.872.888.715.584-.157.887-.584.887-1.19 0-1.082-1.163-.917-1.163-1.696 0-.27.108-.402.298-.453.189-.051.297.023.297.294v.156l.563-.15v-.12c0-.606-.298-.873-.877-.718-.579.156-.876.582-.876 1.188zm3.414-1.825-.87.234-.607 3.95.547-.146.103-.715.73-.196.103.66.6-.161-.605-3.626zm-.465.796.287 1.839-.574.153.287-1.992zm1.343 2.757 1.575-.422v-.541l-.98.262v-3.246l-.595.159v3.788zm2.435-3.9 1.028-.275v-.54l-1.623.434v3.788l1.623-.435v-.54l-1.028.275v-1.11l.817-.219v-.54l-.817.218v-1.055z" font-family="Bebas Neue Bold" font-size="4.525" font-weight="700" letter-spacing="0" word-spacing="0" class="colorffffff svgShape"></path><path style="text-indent:0;text-align:start;line-height:normal;text-transform:none;block-progression:tb" fill="#00ff65" fill-rule="evenodd" d="M25.272 1004.187a.31.31 0 0 0-.308.317c0 .217-.093.315-.308.315-.422-.01-.422.631 0 .625.207 0 .308.057.308.302-.01.422.631.422.625 0 0-.222.104-.302.309-.302.423.01.423-.63 0-.625-.279 0-.309-.16-.309-.315 0-.176-.14-.32-.317-.317zm-8.492 10.106a.427.427 0 0 0-.423.436c0 .298-.127.432-.422.432-.58-.01-.58.867 0 .858.284 0 .422.08.422.414-.01.58.866.58.858 0 0-.304.143-.414.424-.414.58.01.58-.866 0-.857-.382 0-.424-.22-.424-.433a.431.431 0 0 0-.435-.436z" color="#000" font-family="sans-serif" font-weight="400" overflow="visible" class="colorffcc00 svgShape"></path><path style="text-indent:0;text-align:start;line-height:normal;text-transform:none;block-progression:tb" fill="#121a15" fill-rule="evenodd" d="M17.524 1021.27c-.13 0-.233.11-.231.24 0 .163-.07.237-.232.237-.318-.01-.318.475 0 .47.156 0 .232.044.232.228-.01.319.475.319.47 0 0-.167.079-.227.233-.227.32 0 .32-.476 0-.471-.21 0-.232-.12-.232-.237a.237.237 0 0 0-.24-.24z" color="#000" font-family="sans-serif" font-weight="400" overflow="visible" class="color12141a svgShape"></path><path style="text-indent:0;text-align:start;line-height:normal;text-transform:none;block-progression:tb" fill="#00ff65" fill-rule="evenodd" d="M38.593 1003.362a.31.31 0 0 0-.308.318c0 .216-.093.315-.307.315-.423-.01-.423.63 0 .625.207 0 .307.057.307.301-.01.423.631.423.625 0 0-.221.104-.301.31-.301.422.01.422-.631 0-.625-.28 0-.31-.16-.31-.315a.314.314 0 0 0-.317-.318z" color="#000" font-family="sans-serif" font-weight="400" overflow="visible" class="colorff8e00 svgShape"></path><path style="text-indent:0;text-align:start;line-height:normal;text-transform:none;block-progression:tb" fill="#121a15" fill-rule="evenodd" d="M48.496 1010.655c-.13 0-.234.11-.232.24 0 .163-.07.237-.232.237-.318-.01-.318.475 0 .471.156 0 .232.043.232.227-.01.319.476.319.471 0 0-.167.078-.227.233-.227.318.01.318-.476 0-.471-.21 0-.233-.12-.233-.237a.237.237 0 0 0-.24-.24z" color="#000" font-family="sans-serif" font-weight="400" overflow="visible" class="color12141a svgShape"></path><path style="text-indent:0;text-align:start;line-height:normal;text-transform:none;block-progression:tb" fill="#00ff65" fill-rule="evenodd" d="M55.728 1021.431a.427.427 0 0 0-.422.436c0 .297-.127.432-.423.432-.58-.01-.58.866 0 .858.285 0 .423.08.423.414-.01.58.866.58.858 0 0-.304.142-.414.424-.414.58.01.58-.866 0-.858-.383 0-.424-.219-.424-.432a.431.431 0 0 0-.436-.436z" color="#000" font-family="sans-serif" font-weight="400" overflow="visible" class="colorff8e00 svgShape"></path><path style="text-indent:0;text-align:start;line-height:normal;text-transform:none;block-progression:tb" fill="#00ff65" fill-rule="evenodd" d="M52.494 1031.424a.31.31 0 0 0-.307.318c0 .216-.093.315-.308.315-.423-.01-.423.63 0 .625.207 0 .308.057.308.301-.01.423.63.423.625 0 0-.222.104-.301.309-.301.422.01.422-.631 0-.625-.279 0-.31-.16-.31-.315 0-.177-.14-.32-.317-.318z" color="#000" font-family="sans-serif" font-weight="400" overflow="visible" class="colorffcc00 svgShape"></path></g></svg>